{"title":"The Three Musketeers 2011 CAM XviD - ILLUMINATI","uid":6736778,"size":1545588704,"categoryP":"video","categoryS":"movies","magnet":"?xt=urn:btih:59535ea758ddbaff5dd80ecb964de1f138d5826d&amp;dn=The+Three+Musketeers+2011+CAM+XviD+-+ILLUMINATI&amp;tr=udp%3A%2F%2Ftracker.openbittorrent.com%3A80&amp;tr=udp%3A%2F%2Fopen.demonii.com%3A1337&amp;tr=udp%3A%2F%2Ftracker.coppersurfer.tk%3A6969&amp;tr=udp%3A%2F%2Fexodus.desync.com%3A6969","seeders":1,"leechers":0,"uploader":"UltraTorrents","files":3,"time":1318357411,"description":"Cast:\nLogan Lerman, Matthew Macfadyen, Ray Stevenson\n\nPlot:\nThe hot-headed young D'Artagnan along with three former legendary but now down on their luck Musketeers must unite and defeat a beautiful double agent and her villainous employer from seizing the French throne and engulfing Europe in war.\n\n\nInfo, Poster and Trailer:\n        &lt;a href=&quot;\nhttp://www.sharepixon.net/movies/the-three-musketeers&quot; rel=&quot;nofollow&quot; target=&quot;_NEW&quot;&gt;\nhttp://www.sharepixon.net/movies/the-three-musketeers&lt;/a&gt;\n\n\t\n\nScreenshots:\n       &lt;a href=&quot;\nhttp://img.sharepixon.net/?v=thethrjdj.png&quot; rel=&quot;nofollow&quot; target=&quot;_NEW&quot;&gt;\nhttp://img.sharepixon.net/?v=thethrjdj.png&lt;/a&gt; &lt;a href=&quot;\nhttp://img.sharepixon.net/?v=thethrnkn.png&quot; rel=&quot;nofollow&quot; target=&quot;_NEW&quot;&gt;\nhttp://img.sharepixon.net/?v=thethrnkn.png&lt;/a&gt;\n\n\nVideo\nID                               : 0\nFormat                           : MPEG-4 Visual\nFormat profile                   : Advanced Simple@L5\nFormat settings, BVOP            : 2\nFormat settings, QPel            : No\nFormat settings, GMC             : No warppoints\nFormat settings, Matrix          : Default (H.263)\nMuxing mode                      : Packed bitstream\nCodec ID                         : XVID\nCodec ID/Hint                    : XviD\nDuration                         : 1h 45mn\nBit rate                         : 1 731 Kbps\nWidth                            : 720 pixels\nHeight                           : 304 pixels\nDisplay aspect ratio             : 2.35:1\nFrame rate                       : 25.000 fps\nColor space                      : YUV\nChroma subsampling               : 4:2:0\nBit depth                        : 8 bits\nScan type                        : Progressive\nCompression mode                 : Lossy\nBits/(Pixel*Frame)               : 0.316\nStream size                      : 1.27 GiB (90%)\nWriting library                  : XviD 64\n\nAudio\nID                               : 1\nFormat                           : MPEG Audio\nFormat version                   : Version 1\nFormat profile                   : Layer 3\nMode                             : Joint stereo\nMode extension                   : MS Stereo\nCodec ID                         : 55\nCodec ID/Hint                    : MP3\nDuration                         : 1h 45mn\nBit rate mode                    : Constant\nBit rate                         : 192 Kbps\nChannel(s)                       : 2 channels\nSampling rate                    : 48.0 KHz\nCompression mode                 : Lossy\nStream size                      : 144 MiB (10%)\nAlignment                        : Split accross interleaves\nInterleave, duration             : 40 ms (1.00 video frame)\n\n\n\n\n\t\n","torrent":{"xt":"urn:btih:59535ea758ddbaff5dd80ecb964de1f138d5826d","amp;dn":"The+Three+Musketeers+2011+CAM+XviD+-+ILLUMINATI","amp;tr":["udp%3A%2F%2Ftracker.openbittorrent.com%3A80","udp%3A%2F%2Fopen.demonii.com%3A1337","udp%3A%2F%2Ftracker.coppersurfer.tk%3A6969","udp%3A%2F%2Fexodus.desync.com%3A6969"],"infoHash":"59535ea758ddbaff5dd80ecb964de1f138d5826d","infoHashBuffer":{"type":"Buffer","data":[89,83,94,167,88,221,186,255,93,216,14,203,150,77,225,241,56,213,130,109]},"announce":[],"urlList":[]}}